<svg width="46" height="49" viewBox="0 0 46 49" fill="none" xmlns="http://www.w3.org/2000/svg">
<path d="M26.9224 6.54187C25.6689 6.23237 24.3919 6.07397 23.125 6.07397C21.8581 6.07397 20.5794 6.23055 19.3276 6.54187C19.0058 6.62198 18.7784 6.93148 18.7784 7.2865V10.1576C17.6361 10.5654 16.5512 11.1298 15.5437 11.8435L13.4648 10.052C13.207 9.8299 12.8414 9.8299 12.5836 10.052C11.5779 10.9168 10.6681 11.8981 9.87796 12.9686C9.08782 14.0391 8.40382 15.2171 7.84785 16.4697C7.70465 16.7901 7.78721 17.1761 8.04497 17.3982L10.1206 19.1878C9.70274 20.4076 9.43487 21.6766 9.32368 22.9747L6.73256 23.6137C6.41078 23.6938 6.18334 24.0015 6.18166 24.3584C6.17997 25.7475 6.32317 27.1293 6.60452 28.4639C6.88587 29.7984 7.31211 31.111 7.87144 32.3618C8.01464 32.6822 8.34485 32.8533 8.66664 32.7751L11.2578 32.136C11.8794 33.2484 12.6308 34.2643 13.4984 35.1692L12.3444 37.7581C12.2012 38.0785 12.2821 38.4645 12.5398 38.6866C13.5439 39.5532 14.6323 40.2942 15.7745 40.8877C16.9168 41.4812 18.1315 41.94 19.3832 42.2477C19.705 42.3278 20.0335 42.1548 20.1784 41.8344L21.3324 39.2455C22.5353 39.4148 23.7214 39.4148 24.9243 39.2455L26.0783 41.8344C26.198 42.1039 26.449 42.2677 26.7152 42.2677C26.7674 42.2677 26.8196 42.2623 26.8718 42.2495C28.1253 41.9418 29.34 41.4849 30.4805 40.8895C31.6228 40.296 32.7111 39.555 33.7152 38.6884C33.973 38.4663 34.0539 38.0803 33.9107 37.7599L32.7566 35.171C33.6242 34.2661 34.3756 33.2502 34.9973 32.1378L37.5884 32.7769C37.9102 32.8552 38.2404 32.684 38.3836 32.3636C38.9429 31.1128 39.3692 29.802 39.6505 28.4657C39.9319 27.1312 40.0751 25.7493 40.0734 24.3602C40.0734 24.0034 39.8443 23.6939 39.5225 23.6156L36.9314 22.9765C36.8185 21.6784 36.5523 20.4095 36.1345 19.1897L38.2101 17.4C38.4678 17.1779 38.5487 16.7919 38.4072 16.4715C37.8512 15.2189 37.1672 14.0428 36.3771 12.9704C35.587 11.8999 34.6772 10.9186 33.6714 10.052C33.4137 9.8299 33.0481 9.8299 32.7903 10.052L30.7113 11.8435C29.7022 11.1298 28.6189 10.5654 27.4767 10.1576V7.28832C27.4733 6.93148 27.2442 6.62198 26.9224 6.54187ZM30.3306 13.4183C30.5884 13.6168 30.9354 13.6058 31.1814 13.3928L33.2199 11.6359C33.9713 12.3314 34.6587 13.0997 35.2685 13.9245C35.8767 14.7492 36.4175 15.6449 36.8775 16.5916L34.8423 18.3449C34.5963 18.5579 34.5087 18.9202 34.63 19.2352C35.1675 20.6352 35.4791 22.1172 35.5566 23.6374C35.5735 23.9779 35.7976 24.2655 36.1059 24.3402L38.6464 24.9665C38.6127 26.0352 38.4847 27.0947 38.2674 28.1234C38.05 29.152 37.7384 30.1661 37.3408 31.1456L34.8019 30.5193C34.4953 30.4429 34.1785 30.5958 34.0252 30.8944C33.3446 32.2216 32.4685 33.4086 31.4189 34.4227C31.1831 34.6503 31.1157 35.018 31.2521 35.3239L32.3826 37.8618C31.5874 38.4991 30.7417 39.0525 29.8622 39.5113C28.9828 39.9701 28.0545 40.3379 27.0976 40.6128L25.9671 38.0749C25.8475 37.8072 25.5982 37.6416 25.3303 37.6416C25.2916 37.6416 25.2511 37.6452 25.2124 37.6525C24.5132 37.7799 23.8107 37.8455 23.1233 37.8455C22.4359 37.8455 21.7334 37.7799 21.0342 37.6525C20.7226 37.596 20.416 37.7672 20.2795 38.0749L19.149 40.6128C18.1921 40.3397 17.2655 39.9701 16.3844 39.5113C15.505 39.0543 14.6592 38.5009 13.864 37.8618L14.9945 35.3239C15.1309 35.0162 15.0636 34.6485 14.8294 34.4227C13.7798 33.4086 12.9021 32.2216 12.2231 30.8944C12.0698 30.5958 11.7547 30.4429 11.4464 30.5193L8.90755 31.1456C8.50995 30.1661 8.19828 29.152 7.98095 28.1234C7.76362 27.0947 7.63726 26.0352 7.60188 24.9665L10.1425 24.3402C10.4508 24.2637 10.6748 23.9779 10.6917 23.6374C10.7692 22.1172 11.0809 20.637 11.6183 19.2352C11.7396 18.9202 11.652 18.5561 11.406 18.3449L9.37085 16.5916C9.83078 15.6449 10.3699 14.7492 10.9798 13.9245C11.5896 13.0997 12.2753 12.3314 13.0284 11.6359L15.0669 13.3928C15.3129 13.6058 15.6616 13.6168 15.9177 13.4183C17.065 12.5371 18.3303 11.8781 19.678 11.4593C19.9813 11.3647 20.1902 11.0661 20.1902 10.7238V7.90733C22.1327 7.50315 24.1123 7.50315 26.0547 7.90733V10.722C26.0547 11.0624 26.2637 11.3629 26.5669 11.4575C27.9181 11.8763 29.1833 12.5371 30.3306 13.4183Z" fill="#FF0100"/>
<path d="M14.9873 24.0451C14.9873 28.8934 18.6381 32.8387 23.1246 32.8387C27.611 32.8387 31.2618 28.8934 31.2618 24.0451C31.2618 19.1969 27.611 15.2516 23.1246 15.2516C18.6381 15.2516 14.9873 19.195 14.9873 24.0451ZM29.8466 24.0451C29.8466 28.0505 26.831 31.3094 23.1246 31.3094C19.4181 31.3094 16.4025 28.0505 16.4025 24.0451C16.4025 20.0398 19.4181 16.7809 23.1246 16.7809C26.831 16.7809 29.8466 20.038 29.8466 24.0451Z" fill="#FF0100"/>
<path d="M20.2557 23.7046C19.9777 23.4079 19.5296 23.4097 19.255 23.7101C18.9804 24.0105 18.9821 24.4948 19.26 24.7915L21.7484 27.4551C21.8865 27.6025 22.0668 27.6772 22.2471 27.6772C22.429 27.6772 22.6093 27.6026 22.7474 27.4533L27.3468 22.483C27.6231 22.1844 27.6231 21.7001 27.3468 21.4015C27.0705 21.103 26.6223 21.103 26.346 21.4015L22.2454 25.8329L20.2557 23.7046Z" fill="#FF0100"/>
<path d="M30.3741 6.44168C30.4786 6.753 30.7498 6.94599 31.0396 6.94599C31.1205 6.94599 31.2013 6.93142 31.2805 6.90047C31.6478 6.75664 31.8382 6.31788 31.7051 5.92098L30.8863 3.48136C38.7877 6.88773 43.9986 15.1132 43.9986 24.4275C43.9986 36.8659 34.6348 46.9849 23.1247 46.9849C19.0325 46.9849 15.07 45.705 11.6669 43.2854C11.34 43.0524 10.902 43.1507 10.6864 43.5039C10.4707 43.8571 10.5617 44.3304 10.8885 44.5635C14.5242 47.1487 18.7545 48.5142 23.1231 48.5142C29.0769 48.5142 34.6736 46.009 38.8837 41.4593C43.0939 36.9096 45.4121 30.8615 45.4121 24.4275C45.4121 19.2187 43.8992 14.263 41.0351 10.092C38.6226 6.57822 35.4435 3.88554 31.764 2.21786L33.6375 1.48415C34.0047 1.34032 34.1951 0.901558 34.062 0.504664C33.9289 0.107771 33.5229 -0.0979581 33.1556 0.0458702L29.4661 1.49143C29.2892 1.56062 29.146 1.70263 29.0668 1.88651C28.9876 2.07039 28.9792 2.27976 29.0432 2.47092L30.3741 6.44168Z" fill="#FF0100"/>
<path d="M4.70528 41.2498C4.31442 41.2498 3.99769 41.5921 3.99769 42.0145C3.99769 42.4369 4.31442 42.7792 4.70528 42.7792H8.9508C9.34166 42.7792 9.65839 42.4369 9.65839 42.0145V37.8089C9.65839 37.3865 9.34166 37.0442 8.9508 37.0442C8.55994 37.0442 8.24321 37.3865 8.24321 37.8089V40.2394C4.41887 36.0338 2.25062 30.3644 2.25062 24.4274C2.25062 11.989 11.6144 1.87001 23.1244 1.87001C24.2768 1.87001 25.4342 1.97197 26.5613 2.17405C26.9454 2.24324 27.311 1.96104 27.375 1.54412C27.439 1.1272 27.1779 0.73395 26.7921 0.664767C25.5875 0.449935 24.3543 0.340698 23.1228 0.340698C17.1689 0.340698 11.5722 2.84586 7.3621 7.39557C3.15364 11.9435 0.835449 17.9933 0.835449 24.4274C0.835449 30.7395 3.12837 36.7657 7.17678 41.2498H4.70528Z" fill="#FF0100"/>
</svg>
