<svg width="48" height="50" viewBox="0 0 48 50" fill="none" xmlns="http://www.w3.org/2000/svg">
<path fill-rule="evenodd" clip-rule="evenodd" d="M6.01702 5.14471C4.22617 5.5405 2.88525 7.13887 2.88525 9.04865C2.88525 11.2548 4.6761 13.0456 6.88221 13.0456C8.13449 13.0456 9.15106 14.06 9.15106 15.3123C9.15106 16.5624 8.13454 17.579 6.88221 17.579C5.6321 17.579 4.61553 16.5625 4.61553 15.3123C4.61553 14.8343 4.22838 14.4472 3.75039 14.4472C3.27457 14.4472 2.88525 14.8343 2.88525 15.3123C2.88525 17.2221 4.22623 18.8182 6.01702 19.2162V20.5312C6.01702 21.0092 6.40634 21.3964 6.88216 21.3964C7.36015 21.3964 7.74729 21.0092 7.74729 20.5312V19.2162C9.53814 18.8183 10.8813 17.2221 10.8813 15.3123C10.8813 13.1062 9.08827 11.3153 6.88216 11.3153C5.63204 11.3153 4.61547 10.2988 4.61547 9.04865C4.61547 7.79637 5.63199 6.78196 6.88216 6.78196C8.13443 6.78196 9.151 7.79631 9.151 9.04865C9.151 9.52663 9.53815 9.91378 10.0161 9.91378C10.492 9.91378 10.8813 9.52663 10.8813 9.04865C10.8813 7.13887 9.53814 5.54054 7.74729 5.14471V3.82754C7.74729 3.34955 7.36015 2.9624 6.88216 2.9624C6.40634 2.9624 6.01702 3.34955 6.01702 3.82754V5.14471Z" fill="black"/>
<path fill-rule="evenodd" clip-rule="evenodd" d="M36.7704 20.1161H28.1362C27.6582 20.1161 27.2711 20.5054 27.2711 20.9813V25.0625L18.1203 19.1342C17.8326 18.9482 17.4628 18.9482 17.1773 19.1342L0.964782 29.6371C0.642519 29.8447 0.497608 30.2384 0.605749 30.6082C0.71389 30.9737 1.0513 31.2268 1.43412 31.2268H6.78501V43.4943H5.65167C5.32292 43.4943 5.02229 43.6803 4.87739 43.9723L2.87675 47.9736C2.74266 48.2417 2.7578 48.5597 2.91568 48.8127C3.07357 49.0701 3.35258 49.2237 3.65104 49.2237H31.6466C31.9451 49.2237 32.2241 49.0701 32.3819 48.8127C32.5398 48.5597 32.5528 48.2418 32.4209 47.9736L31.0453 45.2246H47.1349C47.6129 45.2246 48 44.8375 48 44.3595V11.5297C48 11.0517 47.6129 10.6646 47.1349 10.6646H37.6358C37.1578 10.6646 36.7707 11.0517 36.7707 11.5297L36.7704 20.1161ZM29.1118 45.2247H6.18583L5.05033 47.4936H30.2475L29.1118 45.2247ZM38.5007 43.4945V12.3949H46.2695V43.4945H38.5007ZM29.0016 26.1829L34.333 29.6369C34.6531 29.8446 34.8002 30.2382 34.6921 30.6081C34.5839 30.9736 34.2465 31.2266 33.8637 31.2266H28.5106V43.4941H36.7706V21.8461H29.0018L29.0016 26.1829ZM12.5145 31.2266V43.4941H14.7833V31.2266H12.5145ZM20.5147 31.2266V43.4941H22.7836V31.2266H20.5147ZM10.7842 31.2266V43.4941H8.51536V31.2266H10.7842ZM18.7844 31.2266V43.4941H16.5134V31.2266H18.7844ZM26.7802 31.2266V43.4941H24.5136V31.2266H26.7802ZM17.6488 20.8926L30.9351 29.4964H4.36254L17.6488 20.8926Z" fill="black"/>
<path fill-rule="evenodd" clip-rule="evenodd" d="M41.1759 2.50624L31.3391 10.5303L25.8714 6.95727C25.5557 6.75181 25.1426 6.7756 24.8506 7.01135L16.8525 13.5432C16.4827 13.8438 16.4265 14.391 16.7293 14.7609C17.0299 15.1307 17.5749 15.1848 17.9469 14.882L25.4544 8.75267L30.9242 12.3235C31.2378 12.529 31.6509 12.5095 31.9451 12.2694L42.2531 3.86224V6.39708C42.2531 6.87507 42.6402 7.26222 43.1182 7.26222C43.5962 7.26222 43.9834 6.87507 43.9834 6.39708V1.64102C43.9834 1.16303 43.5962 0.775879 43.1182 0.775879H38.3622C37.8842 0.775879 37.497 1.16303 37.497 1.64102C37.497 2.119 37.8842 2.50615 38.3622 2.50615L41.1759 2.50624Z" fill="black"/>
</svg>
