<svg width="51" height="52" viewBox="0 0 51 52" fill="none" xmlns="http://www.w3.org/2000/svg">
<path d="M25.406 0.000399689C23.4476 0.050688 21.8591 1.67556 21.8591 3.65098C21.8591 5.38271 23.0803 6.84436 24.701 7.2126V12.9374L17.5028 16.4257L12.4929 11.4016L14.2827 11.4438C14.4933 11.448 14.6969 11.3684 14.8491 11.2225C15.0014 11.0765 15.0898 10.8761 15.0951 10.665C15.0993 10.4538 15.02 10.2496 14.8744 10.0969C14.7289 9.94426 14.529 9.85558 14.3185 9.85026L10.5412 9.7566C10.5365 9.75655 10.5318 9.75655 10.5271 9.7566C10.5239 9.75658 10.5208 9.75658 10.5177 9.7566C10.5073 9.7574 10.497 9.7584 10.4866 9.75962C10.4632 9.76019 10.4398 9.76181 10.4166 9.76445C10.3973 9.76736 10.3781 9.77099 10.359 9.77532C10.3402 9.77877 10.3215 9.7829 10.303 9.7877C10.2846 9.79279 10.2664 9.79853 10.2485 9.80492C10.2316 9.8116 10.215 9.81885 10.1987 9.82667C10.1775 9.83563 10.1567 9.8455 10.1364 9.85627C10.1275 9.86133 10.1186 9.86657 10.1099 9.87197C10.0875 9.88494 10.0656 9.899 10.0446 9.91411C10.0334 9.92268 10.0225 9.93154 10.0119 9.94068C9.99359 9.955 9.97594 9.9701 9.95896 9.98596C9.95896 9.98544 9.95896 9.98648 9.95896 9.98596C9.94432 10.0015 9.9303 10.0192 9.91695 10.0359C9.9062 10.0481 9.89582 10.0606 9.88584 10.0734C9.87492 10.0886 9.86454 10.1042 9.85472 10.1202C9.84373 10.1364 9.83335 10.1531 9.82358 10.1701C9.81293 10.1895 9.80308 10.2093 9.79406 10.2294C9.78732 10.2454 9.78109 10.2615 9.77539 10.2778C9.76848 10.2963 9.76225 10.3151 9.75672 10.334C9.74919 10.3597 9.74296 10.3857 9.73804 10.4121C9.73694 10.4193 9.73594 10.4265 9.73503 10.4338C9.72984 10.4669 9.72672 10.5002 9.7257 10.5337C9.72505 10.542 9.72453 10.5504 9.72414 10.5588C9.72411 10.5629 9.72411 10.567 9.72414 10.5711L9.81754 14.3637C9.82016 14.4688 9.84343 14.5724 9.88601 14.6684C9.9286 14.7645 9.98967 14.8511 10.0657 14.9235C10.1418 14.9958 10.2313 15.0524 10.3292 15.09C10.4271 15.1276 10.5314 15.1455 10.6362 15.1426C10.741 15.1399 10.8442 15.1166 10.94 15.0739C11.0358 15.0312 11.1222 14.9699 11.1944 14.8937C11.2665 14.8174 11.3229 14.7276 11.3604 14.6295C11.3979 14.5313 11.4157 14.4267 11.4128 14.3216L11.3692 12.533L15.9838 17.1622L13.8236 18.2079C13.7438 18.2399 13.6697 18.2847 13.6042 18.3405C13.4518 18.47 13.3535 18.6522 13.3287 18.8509C13.3281 18.8535 13.3276 18.8561 13.3271 18.8588C13.3222 18.8898 13.3191 18.921 13.3178 18.9524V24.7756H7.19505C6.82978 23.1477 5.37058 21.9194 3.64188 21.9194C1.64074 21.9194 0 23.5648 0 25.5715C0 27.5783 1.64074 29.2221 3.64188 29.2221C5.36834 29.2221 6.82586 27.9985 7.1935 26.3738H13.3178V32.1953C13.319 32.3104 13.3451 32.4238 13.394 32.5278C13.4009 32.5415 13.4081 32.555 13.4157 32.5684C13.4351 32.606 13.4575 32.642 13.4826 32.6761C13.4926 32.6889 13.503 32.7014 13.5138 32.7135C13.5383 32.7419 13.5649 32.7685 13.5931 32.7931C13.6107 32.8085 13.6288 32.823 13.6476 32.8368C13.6712 32.8537 13.6956 32.8694 13.7208 32.8836C13.737 32.8946 13.7536 32.9051 13.7706 32.9149L15.9791 33.9855L11.3691 38.6147L11.4127 36.8198C11.4165 36.6089 11.337 36.4051 11.1915 36.2528C11.046 36.1005 10.8464 36.012 10.6361 36.0066C10.5313 36.0037 10.427 36.0216 10.3291 36.0592C10.2312 36.0968 10.1417 36.1534 10.0657 36.2257C9.98961 36.2981 9.92854 36.3847 9.88596 36.4808C9.84337 36.5768 9.8201 36.6804 9.81748 36.7855L9.72408 40.5718C9.7211 40.6803 9.74018 40.7883 9.78017 40.8891C9.82015 40.99 9.88021 41.0816 9.95666 41.1584C10.0331 41.2352 10.1244 41.2956 10.2249 41.3359C10.3254 41.3762 10.433 41.3956 10.5412 41.3928L14.3185 41.2976C14.4231 41.2949 14.5262 41.2717 14.6219 41.2291C14.7176 41.1864 14.804 41.1253 14.8761 41.0493C14.9482 40.9732 15.0047 40.8836 15.0422 40.7856C15.0798 40.6876 15.0978 40.5831 15.0951 40.4782C15.0898 40.2671 15.0013 40.0666 14.8491 39.9207C14.6969 39.7748 14.4932 39.6952 14.2827 39.6994L12.4944 39.7415L17.5028 34.7237L24.7009 38.2104V43.929C23.0802 44.2972 21.859 45.7604 21.859 47.4922C21.859 49.4989 23.4998 51.1427 25.5009 51.1427C27.5021 51.1427 29.1412 49.4989 29.1412 47.4922C29.1412 45.7588 27.9176 44.2955 26.2947 43.929V38.2135L33.4975 34.7237L38.5012 39.7415L36.7176 39.6994C36.6129 39.6967 36.5088 39.7147 36.4111 39.7524C36.3134 39.7901 36.224 39.8467 36.1481 39.919C36.0723 39.9913 36.0113 40.0779 35.9688 40.1739C35.9264 40.2698 35.9031 40.3732 35.9005 40.4782C35.8978 40.5831 35.9158 40.6876 35.9534 40.7856C35.9909 40.8836 36.0474 40.9732 36.1195 41.0493C36.1916 41.1254 36.278 41.1864 36.3737 41.2291C36.4694 41.2717 36.5725 41.2949 36.6771 41.2976L40.4591 41.3928C40.507 41.3935 40.555 41.3898 40.6023 41.3819C40.6418 41.3755 40.6809 41.3661 40.719 41.3538C40.7205 41.3533 40.722 41.3528 40.7235 41.3523C40.7251 41.3517 40.7267 41.3512 40.7284 41.3507C40.7652 41.3383 40.8011 41.3231 40.8358 41.3054C40.8373 41.3044 40.8388 41.3034 40.8403 41.3024C40.871 41.2867 40.9006 41.2689 40.929 41.2493C40.9311 41.2477 40.9332 41.2461 40.9353 41.2445C40.9448 41.238 40.9541 41.2312 40.9633 41.2243C40.9643 41.2233 40.9653 41.2223 40.9663 41.2212C40.9869 41.2051 41.0066 41.1879 41.0255 41.1698C41.0351 41.1606 41.0444 41.1513 41.0535 41.1417C41.125 41.0659 41.1811 40.9768 41.2185 40.8794C41.265 40.7599 41.2821 40.6309 41.2683 40.5033C41.2683 40.5028 41.2683 40.5038 41.2683 40.5033L41.1765 36.7856C41.1712 36.5745 41.0827 36.374 40.9305 36.2281C40.7783 36.0822 40.5746 36.0026 40.3641 36.0068C40.1541 36.0125 39.9548 36.1012 39.8097 36.2534C39.6645 36.4057 39.5852 36.6093 39.589 36.8199L39.631 38.6164L35.0164 33.9872L37.2295 32.915C37.3738 32.8448 37.4936 32.7327 37.5733 32.5932C37.653 32.4537 37.6888 32.2933 37.6762 32.133V26.3739H43.8067C44.1743 27.9986 45.6319 29.2222 47.3583 29.2222C49.3595 29.2222 51.0002 27.5784 51.0002 25.5717C51.0002 23.5649 49.3595 21.9195 47.3583 21.9195C45.6297 21.9195 44.1721 23.1479 43.8067 24.7757H37.6762V19.0228C37.6805 18.9644 37.6784 18.9058 37.6699 18.848C37.6678 18.8307 37.6652 18.8135 37.6621 18.7965C37.6585 18.7797 37.6544 18.763 37.6497 18.7465C37.646 18.7313 37.6419 18.7162 37.6374 18.7012C37.6368 18.6996 37.6363 18.698 37.6358 18.6964C37.6358 18.6959 37.6358 18.6969 37.6358 18.6964C37.6301 18.6801 37.6239 18.6624 37.6171 18.6464C37.6104 18.6306 37.6032 18.615 37.5954 18.5996C37.5804 18.5678 37.5632 18.5371 37.5441 18.5075C37.5342 18.4926 37.5238 18.4781 37.513 18.4638C37.5109 18.4607 37.5088 18.4576 37.5066 18.4545C37.498 18.4444 37.4892 18.4345 37.4801 18.4249C37.4662 18.4087 37.4517 18.3931 37.4365 18.3781C37.4269 18.369 37.4171 18.3601 37.407 18.3515C37.3833 18.3302 37.3584 18.3104 37.3323 18.2922C37.3297 18.2906 37.3271 18.2891 37.3245 18.2876C37.2941 18.2673 37.2624 18.249 37.2296 18.233L37.1922 18.2143C37.1906 18.2137 37.189 18.2132 37.1874 18.2127L35.0132 17.1592L39.6309 12.5316L39.5873 14.3218C39.5844 14.4268 39.6022 14.5315 39.6397 14.6296C39.6772 14.7278 39.7336 14.8176 39.8058 14.8938C39.8779 14.9701 39.9643 15.0313 40.0601 15.0741C40.1559 15.1168 40.2591 15.1401 40.3639 15.1427C40.5745 15.1469 40.7781 15.0673 40.9304 14.9214C41.0826 14.7755 41.1711 14.575 41.1764 14.3639L41.2666 10.6712C41.2852 10.5472 41.2745 10.4206 41.2353 10.3016C41.1961 10.1826 41.1295 10.0745 41.0409 9.98602C40.9705 9.91794 40.8882 9.86345 40.7981 9.82525C40.7863 9.82033 40.7744 9.8157 40.7623 9.81136C40.7384 9.80182 40.7139 9.79346 40.6892 9.78629C40.664 9.77931 40.6386 9.77356 40.6129 9.76908C40.6051 9.76735 40.5973 9.76574 40.5894 9.76424C40.5461 9.75803 40.5024 9.75541 40.4587 9.75639L36.6767 9.85005C36.4662 9.85537 36.2663 9.94405 36.1208 10.0967C35.9753 10.2494 35.8959 10.4536 35.9001 10.6648C35.9027 10.7697 35.9259 10.8731 35.9684 10.9691C36.0109 11.065 36.0718 11.1516 36.1477 11.2239C36.2236 11.2963 36.3129 11.3529 36.4107 11.3906C36.5084 11.4283 36.6125 11.4463 36.7172 11.4436L38.5008 11.4014L33.4986 16.4239L26.2942 12.9341V7.21412C27.9173 6.84765 29.1408 5.38435 29.1408 3.65094C29.1408 1.64416 27.5016 0.000354384 25.5005 0.000354384C25.4692 0.000354384 25.4371 -0.000397675 25.406 0.000399689ZM25.5009 1.5986C26.6408 1.5986 27.5476 2.50794 27.5476 3.65098C27.5476 4.79403 26.6408 5.70336 25.5009 5.70336C24.3611 5.70336 23.4528 4.79403 23.4528 3.65098C23.4528 2.50794 24.3611 1.5986 25.5009 1.5986ZM25.5009 14.3218L35.0523 18.9525L25.5009 23.5833L15.9418 18.9525L25.5009 14.3218ZM14.9115 20.2245L24.701 24.9676V36.4329L14.9115 31.6944V20.2245ZM36.0826 20.2275V31.6959L26.2947 36.4359V24.9706L36.0826 20.2275ZM3.64186 23.5192C4.7817 23.5192 5.68847 24.4285 5.68847 25.5715C5.68847 26.7146 4.7817 27.6239 3.64186 27.6239C2.50203 27.6239 1.59524 26.7146 1.59524 25.5715C1.59524 24.4285 2.50203 23.5192 3.64186 23.5192ZM47.3585 23.5192C48.4983 23.5192 49.4066 24.4285 49.4066 25.5715C49.4066 26.7146 48.4983 27.6239 47.3585 27.6239C46.2186 27.6239 45.3119 26.7146 45.3119 25.5715C45.3119 24.4285 46.2186 23.5192 47.3585 23.5192ZM25.5009 45.4383C26.6408 45.4383 27.5476 46.3492 27.5476 47.4922C27.5476 48.6352 26.6408 49.5446 25.5009 49.5446C24.3611 49.5446 23.4528 48.6352 23.4528 47.4922C23.4528 46.3492 24.3611 45.4383 25.5009 45.4383Z" fill="#FF0100"/>
</svg>
