<svg width="47" height="42" viewBox="0 0 47 42" fill="none" xmlns="http://www.w3.org/2000/svg">
<path fill-rule="evenodd" clip-rule="evenodd" d="M46.301 12.58C46.301 12.9505 46.0943 13.2917 45.7667 13.4633L23.8016 24.994C23.5111 25.148 23.164 25.148 22.8734 24.994L0.908324 13.4633C0.58072 13.2917 0.374023 12.9505 0.374023 12.58C0.374023 12.2095 0.578778 11.8702 0.906377 11.6966L22.8715 0.115538C23.164 -0.0385125 23.511 -0.0385125 23.8036 0.115538L45.7687 11.6966C46.0963 11.8702 46.301 12.2095 46.301 12.58ZM23.3375 2.12609L3.51753 12.5785L23.3375 22.9839L43.1575 12.5785L23.3375 2.12609Z" fill="black"/>
<path fill-rule="evenodd" clip-rule="evenodd" d="M38.3136 15.4424C38.8655 15.4424 39.312 15.8889 39.312 16.4408V24.1101C39.312 24.4943 39.0936 24.8433 38.7485 25.0091L23.7723 32.2476C23.4856 32.386 23.1522 32.3802 22.8714 32.232L9.14319 24.9935C8.81559 24.8199 8.61084 24.4806 8.61084 24.1101V17.4058C8.61084 16.8539 9.0574 16.4074 9.60925 16.4074C10.1611 16.4074 10.6077 16.8539 10.6077 17.4058V23.5076L23.3569 30.2314L37.3152 23.4841V16.4408C37.3152 15.8889 37.7618 15.4424 38.3136 15.4424Z" fill="black"/>
<path fill-rule="evenodd" clip-rule="evenodd" d="M21.6763 13.9116C21.9786 14.3719 21.8518 14.99 21.3897 15.2942L15.5999 19.0987V33.7629C15.5999 34.3128 15.1533 34.7613 14.6014 34.7613C14.0496 34.7613 13.603 34.3128 13.603 33.7629V18.5586C13.603 18.2232 13.7727 17.9092 14.0535 17.7259L20.2936 13.625C20.7538 13.3227 21.3741 13.4495 21.6763 13.9116Z" fill="black"/>
<path fill-rule="evenodd" clip-rule="evenodd" d="M9.85889 37.3823C9.85889 34.7985 12.0137 32.7646 14.6013 32.7646C17.189 32.7646 19.3438 34.7985 19.3438 37.3823C19.3438 39.9642 17.189 42 14.6013 42C12.0137 42 9.85889 39.9642 9.85889 37.3823ZM14.6013 34.7615C13.053 34.7615 11.8557 35.9647 11.8557 37.3823C11.8557 38.798 13.053 40.0031 14.6013 40.0031C16.1497 40.0031 17.347 38.798 17.347 37.3823C17.347 35.9647 16.1497 34.7615 14.6013 34.7615Z" fill="black"/>
</svg>
