<svg width="44" height="50" viewBox="0 0 44 50" fill="none" xmlns="http://www.w3.org/2000/svg">
<path d="M18.7456 28.6319H25.0616C25.5879 28.6319 26.0608 28.2104 26.0608 27.6327V22.2646H31.4289C31.9552 22.2646 32.4281 21.8431 32.4281 21.2654V14.9493C32.4281 14.423 32.0066 13.9501 31.4289 13.9501L26.0608 13.9481V8.63103C26.0608 8.1047 25.6393 7.63184 25.0616 7.63184H18.7456C18.2192 7.63184 17.7464 8.05332 17.7464 8.63103V13.9991L12.3761 14.0012C11.8498 14.0012 11.377 14.4227 11.377 15.0004V21.3164C11.377 21.8428 11.7984 22.3156 12.3761 22.3156H17.7443L17.7463 27.6327C17.7463 28.159 18.2192 28.6319 18.7456 28.6319ZM13.3775 20.3173V15.9483H18.7456C19.2719 15.9483 19.7448 15.5268 19.7448 14.9491V9.57891H24.1138V14.947C24.1138 15.4734 24.5352 15.9462 25.113 15.9462H30.4811V20.3152L25.0614 20.3173C24.535 20.3173 24.0622 20.7388 24.0622 21.3165V26.6846H19.6932V21.3165C19.6932 20.7901 19.2717 20.3173 18.694 20.3173L13.3775 20.3173Z" fill="black"/>
<path d="M3.58625 16.5263H3.79597C4.26885 16.5263 4.63895 16.2097 4.74379 15.7368C6.48112 7.7902 13.6915 1.94734 21.9034 1.94734C30.1153 1.94734 37.3256 7.73704 39.063 15.7368C39.1679 16.2632 39.6942 16.6312 40.2205 16.4729C40.7469 16.368 41.0635 15.8417 40.9566 15.3153C39.063 6.47446 31.0099 0 21.9037 0C12.7976 0 4.74411 6.47446 2.79719 15.3685C2.69233 15.8948 3.06036 16.4212 3.58669 16.526L3.58625 16.5263Z" fill="black"/>
<path d="M43.0104 19.4211C42.4306 18.8413 41.6946 18.5781 40.8002 18.5781C39.6427 18.6316 38.6414 19.4211 38.2734 20.5252L35.6952 28.2618C35.1688 27.8937 34.5377 27.7354 33.853 27.7889C33.01 27.8423 32.2205 28.2104 31.6942 28.8416L26.324 34.9481C25.1664 36.264 24.4283 38.0013 24.3235 39.79L23.7437 48.9472C23.7437 49.2104 23.7971 49.4735 24.0068 49.6832C24.2165 49.8929 24.4283 49.9998 24.7428 49.9998H33.4274C33.9003 49.9998 34.3217 49.6832 34.3752 49.2103L35.0599 45.526L40.1136 41.8951C41.5342 40.8959 42.4286 39.3169 42.5869 37.5796L43.8493 21.58C43.8513 20.7905 43.5882 20.0009 43.0104 19.4211ZM40.5884 37.4234C40.4836 38.5809 39.9038 39.6336 38.9559 40.3182L33.5878 44.1609C33.3781 44.3192 33.2198 44.5289 33.2198 44.7921L32.64 48.055H25.7976L26.324 39.9504C26.4288 38.5811 26.9551 37.3188 27.8495 36.3196L33.2713 30.1619C33.481 29.8988 33.7442 29.7939 34.0608 29.7405C34.3239 29.7405 34.5871 29.7939 34.7968 29.9502C35.0065 30.1085 35.1134 30.2668 35.2183 30.4765V30.53C35.3231 30.898 35.2717 31.266 35.0086 31.5826L30.5347 37.1071C30.2181 37.5286 30.2715 38.1597 30.693 38.4764C31.1145 38.793 31.7457 38.7396 32.0623 38.3181L36.4314 32.7915C37.0112 32.1069 37.2209 31.1591 37.0625 30.2647L40.1157 21.1586C40.2206 20.7905 40.5372 20.5788 40.9587 20.5274C41.2219 20.5274 41.4316 20.6322 41.6433 20.7905C41.8017 20.9489 41.9065 21.212 41.9065 21.4752L40.5884 37.4234Z" fill="black"/>
<path d="M17.5343 34.9484L12.1125 28.7908C11.5327 28.1596 10.7967 27.7916 9.95369 27.7381C9.32251 27.6846 8.69132 27.8964 8.11151 28.211L5.53331 20.4744C5.16528 19.3682 4.16399 18.5787 2.9551 18.5273C2.1656 18.5273 1.37609 18.7905 0.796278 19.3703C0.216466 19.9501 -0.0467024 20.7396 0.00677336 21.5291L1.26914 37.5287C1.42745 39.266 2.32181 40.8451 3.7425 41.8443L8.79617 45.4751L9.48083 49.1595C9.58569 49.6324 9.95371 49.949 10.4287 49.949H19.1132C19.3764 49.949 19.6395 49.8441 19.8492 49.6324C20.0589 49.4227 20.1124 49.1595 20.1124 48.8963L19.5326 39.7391C19.3763 38.0018 18.6918 36.3177 17.5343 34.9484ZM11.2183 48.0552L10.6385 44.7923C10.585 44.5292 10.4287 44.3195 10.2704 44.1612L4.90232 40.3185C3.9545 39.6338 3.37679 38.5812 3.26984 37.4236L2.00747 21.4751C2.00747 21.212 2.06093 21.0022 2.27064 20.7905C2.42895 20.6322 2.69212 20.5273 2.9553 20.5273C3.32332 20.5273 3.63996 20.7905 3.7448 21.1585L6.69313 30.2646C6.53482 31.159 6.74658 32.1068 7.32431 32.7915L11.7447 38.318C12.0613 38.7395 12.6925 38.7909 13.114 38.4763C13.5355 38.1597 13.5869 37.5285 13.2723 37.107L8.85194 31.5805C8.64223 31.3173 8.53532 30.8958 8.64223 30.5278V30.4743C8.69568 30.2646 8.85194 30.0528 9.06371 29.948C9.27342 29.7897 9.53659 29.7383 9.79974 29.7383C10.1164 29.7383 10.3795 29.8966 10.5892 30.1063L16.011 36.2639C16.9054 37.2631 17.4317 38.5789 17.5366 39.8948L18.0629 47.9993L11.2184 48.0014L11.2183 48.0552Z" fill="black"/>
</svg>
