<svg width="40" height="32" viewBox="0 0 40 32" fill="none" xmlns="http://www.w3.org/2000/svg">
<path d="M40 30.6667C40.0001 30.8418 39.9657 31.0152 39.8987 31.177C39.8317 31.3388 39.7335 31.4859 39.6097 31.6097C39.4859 31.7335 39.3388 31.8317 39.177 31.8987C39.0152 31.9657 38.8418 32.0001 38.6667 32H1.33333C0.979711 32 0.640573 31.8595 0.390524 31.6095C0.140476 31.3594 0 31.0203 0 30.6667C0 30.313 0.140476 29.9739 0.390524 29.7239C0.640573 29.4738 0.979711 29.3333 1.33333 29.3333H38.6667C38.8418 29.3332 39.0152 29.3677 39.177 29.4346C39.3388 29.5016 39.4859 29.5998 39.6097 29.7236C39.7335 29.8475 39.8317 29.9945 39.8987 30.1563C39.9657 30.3181 40.0001 30.4915 40 30.6667ZM2.66667 26.6667C2.84179 26.6668 3.01522 26.6323 3.17703 26.5654C3.33884 26.4984 3.48587 26.4002 3.6097 26.2764C3.73353 26.1525 3.83174 26.0055 3.89871 25.8437C3.96568 25.6819 4.0001 25.5085 4 25.3333C4 21.0899 5.68571 17.0202 8.68629 14.0196C11.6869 11.019 15.7565 9.33333 20 9.33333C24.2435 9.33333 28.3131 11.019 31.3137 14.0196C34.3143 17.0202 36 21.0899 36 25.3333C36 25.687 36.1405 26.0261 36.3905 26.2761C36.6406 26.5262 36.9797 26.6667 37.3333 26.6667C37.687 26.6667 38.0261 26.5262 38.2761 26.2761C38.5262 26.0261 38.6667 25.687 38.6667 25.3333C38.6592 20.6176 36.8682 16.0792 33.6531 12.6293C30.438 9.17944 26.0369 7.07347 21.3333 6.73421V2.66667H24C24.3536 2.66667 24.6928 2.52619 24.9428 2.27614C25.1929 2.02609 25.3333 1.68696 25.3333 1.33333C25.3333 0.979711 25.1929 0.640573 24.9428 0.390525C24.6928 0.140476 24.3536 0 24 0H16C15.6464 0 15.3072 0.140476 15.0572 0.390525C14.8071 0.640573 14.6667 0.979711 14.6667 1.33333C14.6667 1.68696 14.8071 2.02609 15.0572 2.27614C15.3072 2.52619 15.6464 2.66667 16 2.66667H18.6667V6.73421C13.9631 7.07347 9.56202 9.17944 6.34693 12.6293C3.13184 16.0792 1.34078 20.6176 1.33333 25.3333C1.33323 25.5085 1.36765 25.6819 1.43462 25.8437C1.50159 26.0055 1.5998 26.1525 1.72363 26.2764C1.84747 26.4002 1.99449 26.4984 2.1563 26.5654C2.31812 26.6323 2.49154 26.6668 2.66667 26.6667Z" fill="black"/>
</svg>
