<svg width="58" height="58" viewBox="0 0 58 58" fill="none" xmlns="http://www.w3.org/2000/svg">
<path d="M57 1H1V57H57V1Z" stroke="white" stroke-width="0.5"/>
<path fill-rule="evenodd" clip-rule="evenodd" d="M40.6668 28.9697H47.8663C48.347 30.3288 49.6443 31.303 51.1668 31.303C53.0988 31.303 54.6668 29.735 54.6668 27.803C54.6668 25.871 53.0988 24.303 51.1668 24.303C49.6443 24.303 48.347 25.2772 47.8663 26.6363H40.6668V22.0292H43.0002C43.6442 22.0292 44.1668 21.5065 44.1668 20.8625C44.1668 20.2185 43.6442 19.6958 43.0002 19.6958H40.5455C40.1605 18.3332 38.9063 17.3333 37.4212 17.3333H36.0002V12.606H42.012C42.4763 13.9967 43.7888 15 45.3335 15C47.2655 15 48.8335 13.4308 48.8335 11.5C48.8335 9.568 47.2655 8 45.3335 8C43.8332 8 42.5522 8.945 42.0552 10.2727H34.8335C34.1895 10.2727 33.6668 10.7953 33.6668 11.4393V17.3333H24.3335V11.4393C24.3335 10.7953 23.8108 10.2727 23.1668 10.2727H14.7785C14.2815 8.945 13.0005 8 11.5002 8C9.56816 8 8.00016 9.568 8.00016 11.5C8.00016 13.4308 9.56816 15 11.5002 15C13.0448 15 14.3573 13.9967 14.8217 12.606H22.0002V17.3333H20.5792C18.7883 17.3333 17.3335 18.787 17.3335 20.579V26.6363H10.134C9.65333 25.2772 8.356 24.303 6.8335 24.303C4.9015 24.303 3.3335 25.871 3.3335 27.803C3.3335 29.735 4.9015 31.303 6.8335 31.303C8.356 31.303 9.65333 30.3288 10.134 28.9697H17.3335V36H14.9652C14.3212 36 13.7985 36.5227 13.7985 37.1667C13.7985 37.8095 14.3212 38.3333 14.9652 38.3333H17.4642C17.8585 39.6808 19.1045 40.6667 20.5792 40.6667H21.9652V45.2727H14.9652C14.9103 45.2727 14.8567 45.2762 14.8042 45.2843C14.327 43.9193 13.0273 42.9393 11.5002 42.9393C9.56816 42.9393 8.00016 44.5085 8.00016 46.4393C8.00016 48.3713 9.56816 49.9393 11.5002 49.9393C13.0273 49.9393 14.327 48.9593 14.8042 47.5955C14.8567 47.6025 14.9103 47.606 14.9652 47.606H23.1318C23.7758 47.606 24.2985 47.0845 24.2985 46.4393V40.6667H33.6668V46.4393C33.6668 47.0845 34.1895 47.606 34.8335 47.606H42.012C42.4763 48.9967 43.7888 50 45.3335 50C47.2655 50 48.8335 48.4308 48.8335 46.5C48.8335 44.568 47.2655 43 45.3335 43C43.8332 43 42.5522 43.945 42.0552 45.2727H36.0002V40.6667H37.4212C39.212 40.6667 40.6668 39.2118 40.6668 37.421V28.9697ZM45.3335 47.6667C44.6895 47.6667 44.1668 47.1428 44.1668 46.5C44.1668 45.856 44.6895 45.3333 45.3335 45.3333C45.9775 45.3333 46.5002 45.856 46.5002 46.5C46.5002 47.1428 45.9775 47.6667 45.3335 47.6667ZM11.5002 47.606C10.8562 47.606 10.3335 47.0833 10.3335 46.4393C10.3335 45.7953 10.8562 45.2727 11.5002 45.2727C12.1442 45.2727 12.6668 45.7953 12.6668 46.4393C12.6668 47.0833 12.1442 47.606 11.5002 47.606ZM38.3335 20.5778V37.421C38.3335 37.9238 37.9252 38.3333 37.4212 38.3333H20.5792C20.0752 38.3333 19.6668 37.9238 19.6668 37.421V20.579C19.6668 20.075 20.0752 19.6667 20.5792 19.6667H37.4212C37.9252 19.6667 38.3335 20.075 38.3335 20.5778ZM30.1668 36H34.8335C35.4775 36 36.0002 35.4773 36.0002 34.8333V29C36.0002 28.356 35.4775 27.8333 34.8335 27.8333C34.1895 27.8333 33.6668 28.356 33.6668 29V33.6667H30.1668C29.5228 33.6667 29.0002 34.1893 29.0002 34.8333C29.0002 35.4762 29.5228 36 30.1668 36ZM22.0002 33.6667H25.5002C26.1442 33.6667 26.6668 33.1428 26.6668 32.5C26.6668 31.856 26.1442 31.3333 25.5002 31.3333H22.0002C21.3562 31.3333 20.8335 31.856 20.8335 32.5C20.8335 33.1428 21.3562 33.6667 22.0002 33.6667ZM23.1668 24.3333H26.6668V29C26.6668 29.6428 27.1895 30.1667 27.8335 30.1667C28.4775 30.1667 29.0002 29.6428 29.0002 29V23.1667C29.0002 22.5215 28.4775 22 27.8335 22H23.1668C22.5228 22 22.0002 22.5227 22.0002 23.1667C22.0002 23.8095 22.5228 24.3333 23.1668 24.3333ZM6.8335 26.6363C7.4775 26.6363 8.00016 27.159 8.00016 27.803C8.00016 28.447 7.4775 28.9697 6.8335 28.9697C6.1895 28.9697 5.66683 28.447 5.66683 27.803C5.66683 27.159 6.1895 26.6363 6.8335 26.6363ZM51.1668 26.6363C51.8108 26.6363 52.3335 27.159 52.3335 27.803C52.3335 28.447 51.8108 28.9697 51.1668 28.9697C50.5228 28.9697 50.0002 28.447 50.0002 27.803C50.0002 27.159 50.5228 26.6363 51.1668 26.6363ZM11.5002 10.3333C12.1442 10.3333 12.6668 10.856 12.6668 11.5C12.6668 12.1428 12.1442 12.6667 11.5002 12.6667C10.8562 12.6667 10.3335 12.1428 10.3335 11.5C10.3335 10.856 10.8562 10.3333 11.5002 10.3333ZM45.3335 10.3333C45.9775 10.3333 46.5002 10.856 46.5002 11.5C46.5002 12.1428 45.9775 12.6667 45.3335 12.6667C44.6895 12.6667 44.1668 12.1428 44.1668 11.5C44.1668 10.856 44.6895 10.3333 45.3335 10.3333Z" fill="black" stroke="white" stroke-width="0.5"/>
</svg>
