<svg width="50" height="40" viewBox="0 0 50 40" fill="none" xmlns="http://www.w3.org/2000/svg">
<path fill-rule="evenodd" clip-rule="evenodd" d="M11.8111 32.6231C10.8563 31.6536 9.42397 31.3652 8.18046 31.8932C6.93696 32.4234 6.12751 33.6637 6.12751 35.0414C6.12751 36.417 6.93696 37.6595 8.18046 38.1875C9.42397 38.7155 10.8563 38.4271 11.8111 37.4575C12.4405 36.8186 12.7942 35.9489 12.7942 35.0414C12.7942 34.134 12.4405 33.2643 11.8111 32.6231ZM42.2391 32.6231C41.2842 31.6536 39.8519 31.3652 38.6084 31.8932C37.3649 32.4234 36.5554 33.6637 36.5554 35.0414C36.5554 36.417 37.3649 37.6595 38.6084 38.1875C39.8519 38.7155 41.2842 38.4271 42.2391 37.4575C42.8684 36.8186 43.2221 35.9489 43.2221 35.0414C43.2221 34.134 42.8684 33.2643 42.2391 32.6231ZM12.4712 1.54425V10.257L15.2489 8.62181C15.4833 8.4776 15.7763 8.4776 16.0107 8.62181L18.7885 10.257V1.54425H12.4712ZM20.299 1.54425H29.7435V24.5471H1.5161V1.54425H10.9606V11.5968C10.9628 11.8741 11.1082 12.1293 11.3425 12.2668C11.5769 12.4044 11.8655 12.4044 12.0999 12.2668L15.6329 10.1769L19.1269 12.238C19.3591 12.3977 19.6586 12.4155 19.9038 12.2801C20.1512 12.1448 20.3053 11.883 20.3053 11.5968V1.54427L20.299 1.54425ZM36.0046 12.3357V21.9072H48.3724C48.2813 21.4945 48.1402 21.0974 47.9492 20.7247L44.6159 14.0289C44.1189 12.9706 43.0642 12.3049 41.9162 12.3249L36.0046 12.3357ZM48.483 23.4509V34.2424H44.6722C44.2946 31.8308 42.2612 30.0581 39.8718 30.0581C37.4847 30.0581 35.4491 31.8308 35.0715 34.2424H14.2492C13.8716 31.8308 11.8381 30.0581 9.45097 30.0581C7.06163 30.0581 5.02823 31.8308 4.65062 34.2424H1.51693V26.0687H30.4993C30.9181 26.0687 31.2588 25.7248 31.261 25.2966V12.3355H34.488V22.6788C34.488 23.1048 34.8266 23.4509 35.2454 23.4509H48.483ZM49.9999 22.6101V35.0435C49.9999 35.2477 49.9196 35.4451 49.7786 35.5893C49.6375 35.7335 49.4444 35.8156 49.2447 35.8156H44.6722C44.2946 38.2273 42.2612 40 39.8718 40C37.4847 40 35.4491 38.2273 35.0715 35.8156H14.2492C13.8716 38.2273 11.8382 40 9.45098 40C7.06164 40 5.02824 38.2273 4.65063 35.8156H0.76172C0.559897 35.8179 0.366752 35.7358 0.223523 35.5916C0.0802948 35.4473 0 35.2499 0 35.0436V0.772102C0 0.346123 0.338546 0 0.755226 0H30.4992C30.9181 0 31.2588 0.343891 31.261 0.772102V10.7917H41.901C43.6133 10.7673 45.1866 11.7524 45.944 13.3232L49.2773 20.0258C49.6983 20.8245 49.9435 21.7048 49.9999 22.6101ZM37.2221 26.0867H38.8888C39.0993 26.1044 39.3076 26.0312 39.4639 25.8848C39.6201 25.7384 39.7091 25.532 39.7091 25.3168C39.7091 25.0994 39.6201 24.8931 39.4639 24.7466C39.3076 24.6002 39.0993 24.5292 38.8888 24.5469H37.2221C36.8054 24.5469 36.4669 24.8931 36.4669 25.319C36.4669 25.745 36.8054 26.0912 37.2221 26.0912V26.0867ZM4.57639 22.5879H10.2381C10.6331 22.5524 10.9347 22.2151 10.9347 21.8113C10.9347 21.4075 10.633 21.0703 10.2381 21.037H4.57639C4.1836 21.0703 3.88195 21.4075 3.88195 21.8113C3.88195 22.2151 4.1836 22.5524 4.57639 22.5879ZM4.57639 19.0158H10.2381C10.6548 19.0158 10.9933 18.6697 10.9933 18.2415C10.9933 17.8155 10.6548 17.4694 10.2381 17.4694H4.57639C4.15972 17.4694 3.82117 17.8155 3.82117 18.2415C3.82117 18.6697 4.15971 19.0158 4.57639 19.0158Z" fill="black"/>
</svg>
