<svg width="172" height="17" viewBox="0 0 172 17" fill="none" xmlns="http://www.w3.org/2000/svg">
<g clip-path="url(#clip0_142_519)">
<path d="M3.66322 4.0116V12.9701H17.5242V4.0116H3.66322ZM17.1491 0.201729C19.8166 0.201729 21.1596 1.65049 21.1596 4.51591V12.5116C21.1596 15.377 19.8166 16.8258 17.1491 16.8258H1.08831C0.37049 16.8258 0 16.4453 0 15.7071V1.32039C0 0.559334 0.37049 0.201729 1.08831 0.201729H17.1491Z" fill="white"/>
<path d="M28.5326 10.4302V12.993H44.9406C45.6816 12.993 46.029 13.346 46.029 14.0841V15.6842C46.029 16.4223 45.6585 16.8029 44.9406 16.8029H28.8799C26.1892 16.8029 24.8462 15.3587 24.8462 12.4887V4.51591C24.8462 1.65049 26.1892 0.201729 28.8799 0.201729H44.9638C45.6816 0.201729 46.029 0.582257 46.029 1.29288V2.91586C46.029 3.65399 45.6585 4.03452 44.9406 4.03452H28.5094V6.59736H44.9406C45.6816 6.59736 46.029 6.97789 46.029 7.71602V9.31608C46.029 10.0542 45.6585 10.4347 44.9406 10.4347H28.5326V10.4302Z" fill="white"/>
<path d="M71.3425 16.7983H69.8837C69.1427 16.7983 68.7954 16.4177 68.7954 15.6796V0.990294C68.7954 0.458471 69.1659 0.201729 69.8837 0.201729H71.3425C72.0604 0.201729 72.4308 0.582257 72.4308 1.32039V15.7071C72.4308 16.4453 72.0604 16.8258 71.3425 16.8258V16.7983Z" fill="white"/>
<path d="M97.3463 14.0841V15.6842C97.3463 16.4223 96.9759 16.8029 96.258 16.8029H80.1973C77.5066 16.8029 76.1636 15.3587 76.1636 12.4887V4.51591C76.1636 1.65049 77.5066 0.201729 80.1973 0.201729H96.2812C96.999 0.201729 97.3463 0.582257 97.3463 1.29288V2.91586C97.3463 3.65399 96.9759 4.03452 96.258 4.03452H79.8268V12.993H96.258C96.999 12.993 97.3463 13.3735 97.3463 14.1117V14.0841Z" fill="white"/>
<path d="M104.714 4.0116V12.9701H118.575V4.0116H104.714ZM118.205 0.201729C120.872 0.201729 122.216 1.65049 122.216 4.51591V12.5116C122.216 15.377 120.872 16.8258 118.205 16.8258H105.062C102.394 16.8258 101.051 15.3816 101.051 12.5116V4.51591C101.051 1.65049 102.394 0.201729 105.085 0.201729H118.205Z" fill="white"/>
<path d="M129.213 0.178802C130.301 0.178802 131.598 1.0178 133.131 2.71872L143.445 13.2772V1.29288C143.445 0.554746 143.815 0.201726 144.533 0.201726H145.992C146.733 0.201726 147.103 0.582255 147.103 1.32039V13.3002C147.103 15.6338 145.992 16.8258 143.81 16.8258C142.722 16.8258 141.402 15.9868 139.893 14.3134L129.579 3.78236V15.6842C129.579 16.4453 129.209 16.8258 128.491 16.8258H127.009C126.291 16.8258 125.92 16.4453 125.92 15.7071V3.70442C125.92 1.37082 127.009 0.178802 129.213 0.178802Z" fill="white"/>
<path d="M154.105 0.178802C155.194 0.178802 156.49 1.0178 158.023 2.71872L168.337 13.2772V1.29288C168.337 0.554746 168.707 0.201726 169.425 0.201726H170.884C171.625 0.201726 171.995 0.582255 171.995 1.32039V13.3002C171.995 15.6338 170.884 16.8258 168.703 16.8258C167.614 16.8258 166.294 15.9868 164.785 14.3134L154.471 3.78236V15.6842C154.471 16.4453 154.101 16.8258 153.383 16.8258H151.901C151.183 16.8258 150.812 16.4453 150.812 15.7071V3.70442C150.812 1.37082 151.901 0.178802 154.105 0.178802Z" fill="white"/>
<path d="M53.9573 0H50.4793C50.0069 0 49.6226 0.421791 49.6226 0.93986V4.74515C49.6226 5.26321 50.0069 5.68501 50.4793 5.68501H53.9573C54.4297 5.68501 54.8141 5.26321 54.8141 4.74515V0.93986C54.8141 0.421791 54.4297 0 53.9573 0Z" fill="#FF0100"/>
<path d="M64.3172 0H60.8392C60.3668 0 59.9824 0.421791 59.9824 0.93986V4.74515C59.9824 5.26321 60.3668 5.68501 60.8392 5.68501H64.3172C64.7895 5.68501 65.1739 5.26321 65.1739 4.74515V0.93986C65.1739 0.421791 64.7895 0 64.3172 0Z" fill="#FF0100"/>
<path d="M59.1026 5.68501H55.6478C55.1754 5.68501 54.791 6.1068 54.791 6.62486V10.4302C54.791 10.9482 55.1754 11.37 55.6478 11.37H59.1026C59.575 11.37 59.9594 10.9482 59.9594 10.4302V6.62486C59.9594 6.1068 59.575 5.68501 59.1026 5.68501Z" fill="#FF0100"/>
<path d="M53.9573 11.3425H50.4793C50.0069 11.3425 49.6226 11.7643 49.6226 12.2824V16.0647C49.6226 16.5828 50.0069 17.0046 50.4793 17.0046H53.9573C54.4297 17.0046 54.8141 16.5828 54.8141 16.0647V12.2824C54.8141 11.7643 54.4297 11.3425 53.9573 11.3425Z" fill="#FF0100"/>
<path d="M53.9573 11.3425H50.4793C50.0069 11.3425 49.6226 11.7643 49.6226 12.2824V16.0647C49.6226 16.5828 50.0069 17.0046 50.4793 17.0046H53.9573C54.4297 17.0046 54.8141 16.5828 54.8141 16.0647V12.2824C54.8141 11.7643 54.4297 11.3425 53.9573 11.3425Z" fill="#FF0100"/>
<path d="M64.3172 0H60.8392C60.3668 0 59.9824 0.421791 59.9824 0.93986V4.74515C59.9824 5.26321 60.3668 5.68501 60.8392 5.68501H64.3172C64.7895 5.68501 65.1739 5.26321 65.1739 4.74515V0.93986C65.1739 0.421791 64.7895 0 64.3172 0Z" fill="#FF0100"/>
<path d="M64.3172 11.3425H60.8392C60.3668 11.3425 59.9824 11.7643 59.9824 12.2824V16.0647C59.9824 16.5828 60.3668 17.0046 60.8392 17.0046H64.3172C64.7895 17.0046 65.1739 16.5828 65.1739 16.0647V12.2824C65.1739 11.7643 64.7895 11.3425 64.3172 11.3425Z" fill="#FF0100"/>
<path d="M60.8389 11.3425C60.3757 11.3425 59.9821 11.7735 59.9821 12.2824C59.9821 11.7735 59.5885 11.3425 59.1253 11.3425H55.6474C55.1843 11.3425 54.7906 10.9115 54.7906 10.4026V6.59736C54.7906 6.08846 54.397 5.6575 53.9339 5.6575H50.4559C49.9928 5.6575 49.5991 5.22654 49.5991 4.71764V0.93986C49.5991 0.43096 49.9928 0 50.4559 0H53.9339C54.397 0 54.7906 0.43096 54.7906 0.93986V4.74515C54.7906 5.25405 55.1843 5.685 55.6474 5.685H59.1253C59.5885 5.685 59.9821 6.11596 59.9821 6.62486V10.4302C59.9821 10.939 60.3757 11.37 60.8389 11.37V11.3425Z" fill="#FF0100"/>
</g>
<defs>
<clipPath id="clip0_142_519">
<rect width="172" height="17" fill="white"/>
</clipPath>
</defs>
</svg>
