<svg width="56" height="50" viewBox="0 0 56 50" fill="none" xmlns="http://www.w3.org/2000/svg">
<path d="M26.2499 0C25.7665 0 25.3749 0.391134 25.3749 0.874042V2.13921C24.4102 2.38613 23.4871 2.76634 22.6275 3.27107L21.7327 2.37952H21.7349C21.3937 2.03864 20.838 2.03864 20.4968 2.37952L18.0228 4.85089C17.6815 5.19177 17.6815 5.7468 18.0228 6.08764L18.9175 6.97919C18.4122 7.83572 18.0294 8.76005 17.7844 9.72365H16.5156C16.0322 9.72365 15.6406 10.1148 15.6406 10.5977V14.0939C15.6406 14.5768 16.0322 14.9679 16.5156 14.9679H17.7822C18.0294 15.9316 18.41 16.8558 18.9153 17.7124L18.0206 18.6039H18.0228C17.6815 18.9448 17.6815 19.4976 18.0228 19.8407L20.4968 22.312C20.8381 22.6529 21.3937 22.6529 21.7349 22.312L22.6297 21.4183C23.4871 21.9231 24.4125 22.3054 25.3771 22.5502V23.8153L25.3749 23.8175C25.3749 24.3004 25.7665 24.6916 26.2499 24.6916H29.7499C30.2334 24.6916 30.6249 24.3004 30.6249 23.8175V22.5524C31.5896 22.3054 32.5127 21.9252 33.3724 21.4205L34.2671 22.3142L34.2649 22.312C34.6062 22.6529 35.1596 22.6529 35.503 22.312L37.9771 19.8407C38.3183 19.4976 38.3183 18.9448 37.9771 18.6039L37.0824 17.7124C37.5877 16.8558 37.9705 15.9315 38.2155 14.9679H39.4842C39.9677 14.9679 40.3592 14.5768 40.3592 14.0939V10.5977C40.3592 10.1148 39.9677 9.72365 39.4842 9.72365H38.222C37.9748 8.76 37.592 7.83572 37.0846 6.97919L37.9771 6.08764C38.3183 5.74676 38.3183 5.19173 37.9771 4.85089L35.503 2.37952C35.1596 2.03864 34.6061 2.03864 34.2649 2.37952L33.3724 3.27107C32.5149 2.76413 31.5896 2.38176 30.6249 2.13484V0.874042C30.6249 0.391134 30.2334 0 29.7499 0H26.2499ZM27.1249 1.74808H28.8749V2.83408C28.8749 3.2558 29.1768 3.61632 29.5924 3.69285C30.8152 3.91791 31.9768 4.39863 33.0005 5.10222H32.9983C33.3461 5.34259 33.8164 5.29888 34.1139 5.00171L34.8839 4.23255L36.122 5.4693L35.352 6.23846C35.0523 6.53563 35.0108 7.00543 35.2492 7.35068C35.9558 8.3733 36.437 9.53358 36.6601 10.7551H36.6623C36.7389 11.1702 37.0998 11.4717 37.522 11.4717H38.6092V13.2198H37.5177C37.0955 13.2198 36.7324 13.5214 36.6558 13.9365C36.4327 15.158 35.9536 16.3183 35.2492 17.3409C35.0108 17.6883 35.0524 18.1559 35.352 18.4531L36.122 19.2223L34.8839 20.459L34.1139 19.6899C33.8164 19.3905 33.3483 19.349 33.0005 19.5872C31.9768 20.2908 30.8152 20.7693 29.5924 20.9922C29.1768 21.0687 28.8749 21.4314 28.8749 21.8531V22.9435H27.1249V21.8531C27.1249 21.4314 26.8231 21.0687 26.4075 20.9922C25.1846 20.7693 24.0231 20.2908 22.9994 19.5872C22.6515 19.349 22.1834 19.3905 21.8859 19.6899L21.1159 20.459L19.8778 19.2223L20.6478 18.4531C20.9453 18.1559 20.9891 17.6883 20.7506 17.3409C20.0463 16.3183 19.5672 15.158 19.3441 13.9365C19.2675 13.5213 18.9044 13.2198 18.4822 13.2198H17.3906V11.4717H18.4822C18.9044 11.4717 19.2675 11.1702 19.3441 10.7551C19.5672 9.53358 20.0463 8.3733 20.7506 7.35068C20.9891 7.00325 20.9453 6.53566 20.6478 6.23846L19.8778 5.4693L21.1159 4.23255L21.8859 5.00171C22.1834 5.29888 22.6515 5.34259 22.9994 5.1044C24.0231 4.40081 25.1846 3.92225 26.4075 3.69939C26.8231 3.62291 27.1249 3.26018 27.1249 2.83844V1.74808ZM27.9999 6.97925C25.0425 6.97925 22.6274 9.3916 22.6274 12.3459C22.6274 15.3002 25.0424 17.7125 27.9999 17.7125C30.9575 17.7125 33.3724 15.3002 33.3724 12.3459C33.3724 9.3916 30.9575 6.97925 27.9999 6.97925ZM27.9999 8.72733C30.0102 8.72733 31.6224 10.3377 31.6224 12.3459C31.6224 14.354 30.0103 15.9645 27.9999 15.9645C25.9896 15.9645 24.3774 14.354 24.3774 12.3459C24.3774 10.3377 25.9896 8.72733 27.9999 8.72733ZM3.4322 23.5337C2.94876 23.5337 2.5572 23.9249 2.5572 24.4078V39.4021H0.875016C0.643142 39.4021 0.420016 39.4939 0.255936 39.6578C0.0918567 39.8217 0 40.0446 0 40.2762C0 40.5078 0.0918735 40.7307 0.255936 40.8946C0.419999 41.0585 0.643126 41.1503 0.875016 41.1503H3.64001C2.78691 42.092 2.26628 43.3376 2.26628 44.7011C2.26628 46.0646 2.7869 47.3101 3.64001 48.2519H0.875016C0.39158 48.2519 1.68e-05 48.643 1.68e-05 49.1259C1.68e-05 49.3576 0.0918903 49.5804 0.255953 49.7443C0.420016 49.9082 0.643142 50 0.875033 50H55.125C55.3568 50 55.58 49.9082 55.744 49.7443C55.9081 49.5805 56 49.3576 56 49.1259C56 48.643 55.6084 48.2519 55.125 48.2519H52.36C53.2131 47.3101 53.7337 46.0646 53.7337 44.7011C53.7337 43.3376 53.2131 42.092 52.36 41.1503H55.125C55.3569 41.1503 55.58 41.0585 55.7441 40.8946C55.9081 40.7307 56 40.5078 56 40.2762C56 40.0446 55.9081 39.8217 55.7441 39.6578C55.58 39.4939 55.3569 39.4021 55.125 39.4021H53.4428V24.4078C53.4428 23.9249 53.0512 23.5337 52.5678 23.5337H36.6823C36.1989 23.5337 35.8073 23.9249 35.8073 24.4078V39.4021H20.1928V24.4078C20.1928 23.9249 19.8013 23.5337 19.3178 23.5337H3.4322ZM4.3072 25.2818H8.40656V28.7649C8.40656 29.0577 8.55531 29.3308 8.79812 29.4947C9.04312 29.6564 9.35156 29.6848 9.62283 29.5712L11.375 28.8305L13.1272 29.5712C13.3984 29.6848 13.7069 29.6564 13.9519 29.4947C14.1969 29.333 14.3435 29.0577 14.3435 28.7649V25.2818H18.4428V39.4019H4.30733L4.3072 25.2818ZM10.1564 25.2818H12.5933V27.4473L11.7161 27.078C11.4974 26.984 11.2524 26.984 11.0336 27.078L10.1564 27.4473V25.2818ZM37.5572 25.2818H41.6565V28.7649C41.6565 29.0577 41.8031 29.333 42.0481 29.4947C42.2931 29.6564 42.6015 29.6848 42.8728 29.5712L44.625 28.8305L46.3772 29.5712C46.6484 29.6848 46.9569 29.6564 47.2019 29.4947C47.4469 29.333 47.5934 29.0577 47.5934 28.7649V25.2818H51.6928V39.4019H37.5573L37.5572 25.2818ZM43.4063 25.2818H45.8432V27.4473L44.9661 27.078C44.7473 26.984 44.5023 26.984 44.2835 27.078L43.4063 27.4473V25.2818ZM19.3174 41.1499H24.0687C23.2156 42.0917 22.6949 43.3373 22.6949 44.7008C22.6949 46.0643 23.2156 47.3098 24.0687 48.2516H11.4995C12.3526 47.3098 12.8732 46.0643 12.8732 44.7008C12.8732 43.3373 12.3526 42.0917 11.4995 41.1499H19.3174ZM27.9996 41.1499C29.9727 41.1499 31.5544 42.7298 31.5544 44.7008C31.5544 46.6718 29.9728 48.2516 27.9996 48.2516C26.0265 48.2516 24.4449 46.6718 24.4449 44.7008C24.4449 42.7298 26.0265 41.1499 27.9996 41.1499ZM31.9306 41.1499H44.4997C43.6466 42.0917 43.126 43.3373 43.126 44.7008C43.126 46.0643 43.6466 47.3098 44.4997 48.2516H31.9306C32.7837 47.3098 33.3043 46.0643 33.3043 44.7008C33.3043 43.3373 32.7837 42.0917 31.9306 41.1499ZM7.56835 41.1499H7.57491C9.54802 41.1499 11.1274 42.7298 11.1274 44.7008C11.1274 46.6718 9.54589 48.2516 7.57273 48.2516C5.59963 48.2516 4.01802 46.6718 4.01802 44.7008C4.01802 42.7298 5.59739 41.1521 7.57055 41.1499H7.56835ZM48.4287 41.1499H48.4353C50.4084 41.1499 51.9878 42.7298 51.9878 44.7008C51.9878 46.6718 50.4062 48.2516 48.4331 48.2516C46.46 48.2516 44.8784 46.6718 44.8784 44.7008C44.8784 42.7298 46.4577 41.1521 48.4309 41.1499H48.4287ZM7.57283 43.6125C6.97783 43.6125 6.48128 44.1064 6.48128 44.7029C6.48128 45.2972 6.97565 45.7889 7.57283 45.7889C8.16783 45.7889 8.66001 45.2972 8.66001 44.7029C8.66001 44.1086 8.16782 43.6125 7.57283 43.6125ZM28.0016 43.6125C27.4066 43.6125 26.9101 44.1064 26.9101 44.7029C26.9101 45.2972 27.4044 45.7889 28.0016 45.7889C28.5966 45.7889 29.0888 45.2972 29.0888 44.7029C29.0888 44.1086 28.5966 43.6125 28.0016 43.6125ZM48.4304 43.6125C47.8354 43.6125 47.3388 44.1064 47.3388 44.7029C47.3388 45.2972 47.8332 45.7889 48.4304 45.7889C49.0254 45.7889 49.5176 45.2972 49.5176 44.7029C49.5176 44.1086 49.0254 43.6125 48.4304 43.6125Z" fill="black"/>
</svg>
