<svg width="48" height="39" viewBox="0 0 48 39" fill="none" xmlns="http://www.w3.org/2000/svg">
<path d="M47.9957 15.0116C47.9957 14.9793 48 14.9471 48 14.9127C48 14.8589 47.9764 14.8137 47.97 14.7621C47.9593 14.6804 47.9507 14.603 47.9229 14.5255C47.895 14.4503 47.8521 14.3857 47.8114 14.3169C47.7836 14.2718 47.7729 14.2201 47.7364 14.1771L36.9922 1.23878C36.3386 0.45163 35.3786 0 34.3586 0H13.6414C12.6213 0 11.6613 0.451636 11.0078 1.23878L0.265711 14.1771C0.231425 14.218 0.218568 14.2696 0.192855 14.3126C0.149999 14.3814 0.107142 14.446 0.0792853 14.5234C0.0514285 14.6008 0.0428571 14.6761 0.032143 14.7556C0.0257143 14.8094 0 14.8546 0 14.9105C0 14.9449 0.00428543 14.9772 0.00428543 15.0116V15.0159C0.062143 18.7623 3.10929 21.7928 6.85481 21.7928C9.23768 21.7928 11.3398 20.5648 12.5698 18.7066C13.7998 20.5648 15.8998 21.7928 18.2848 21.7928C20.6698 21.7928 22.7698 20.5669 23.9998 18.7088C25.2298 20.5669 27.3298 21.795 29.7148 21.795C32.0998 21.795 34.1998 20.5669 35.4298 18.7088C36.6598 20.5669 38.7597 21.795 41.1447 21.795C44.8904 21.795 47.9399 18.7647 47.9953 15.0202C47.9953 15.0159 47.9936 15.0137 47.9957 15.0116ZM41.143 19.5C38.6208 19.5 36.5723 17.4418 36.5723 14.9127C36.5723 14.2782 36.0602 13.7664 35.4302 13.7664C34.7981 13.7664 34.2881 14.2804 34.2881 14.9127C34.2881 17.4419 32.2374 19.5 29.7174 19.5C27.1953 19.5 25.1467 17.4418 25.1467 14.9127C25.1467 14.2782 24.6346 13.7664 24.0046 13.7664C23.3746 13.7664 22.8625 14.2804 22.8625 14.9127C22.8625 17.4419 20.8118 19.5 18.2918 19.5C15.7719 19.5 13.7211 17.4418 13.7211 14.9127C13.7211 14.2782 13.209 13.7664 12.579 13.7664C11.949 13.7664 11.4369 14.2804 11.4369 14.9127C11.4369 17.4419 9.38619 19.5 6.86623 19.5C4.47266 19.5 2.5248 17.6354 2.33198 15.2825L12.7658 2.70755C12.9843 2.44517 13.3036 2.29462 13.6422 2.29462H34.3595C34.7002 2.29462 35.0194 2.44517 35.2359 2.70755L45.6779 15.2825C45.4851 17.6375 43.5366 19.5 41.143 19.5ZM46.858 25.2358V35.559C46.858 37.4558 45.3194 39 43.4294 39H14.8567C14.2246 39 13.7146 38.486 13.7146 37.8537V27.5306C13.7146 26.8983 13.2024 26.3843 12.5724 26.3843L10.286 26.3821C9.65603 26.3821 9.14388 26.8961 9.14388 27.5284V37.8516C9.14388 38.486 8.63175 38.9978 8.00177 38.9978H4.57321C2.68323 38.9978 1.14466 37.4537 1.14466 35.5568V25.2337C1.14466 24.5992 1.6568 24.0874 2.28678 24.0874C2.91675 24.0874 3.4289 24.6014 3.4289 25.2337V35.5568C3.4289 36.1891 3.94104 36.7031 4.57102 36.7031H6.85745V27.5284C6.85745 25.6315 8.39602 24.0874 10.286 24.0874H12.5724C14.4624 24.0874 16.001 25.6315 16.001 27.5284V36.7053H43.4294C44.0594 36.7053 44.5716 36.1913 44.5716 35.559V25.2359C44.5716 24.6014 45.0837 24.0896 45.7137 24.0896C46.3458 24.0874 46.858 24.6014 46.858 25.2358ZM37.7144 33.2642C39.6044 33.2642 41.143 31.72 41.143 29.8231V27.5284C41.143 25.6315 39.6044 24.0873 37.7144 24.0873H28.5709C26.6809 24.0873 25.1423 25.6315 25.1423 27.5284V29.8231C25.1423 31.72 26.6809 33.2642 28.5709 33.2642H37.7144ZM27.4288 29.8231V27.5284C27.4288 26.8961 27.9409 26.3821 28.5709 26.3821H37.7144C38.3444 26.3821 38.8566 26.8961 38.8566 27.5284V29.8231C38.8566 30.4554 38.3444 30.9694 37.7144 30.9694H28.5709C27.9409 30.9694 27.4288 30.4554 27.4288 29.8231Z" fill="black"/>
</svg>
