<svg width="57" height="57" viewBox="0 0 57 57" fill="none" xmlns="http://www.w3.org/2000/svg">
<path fill-rule="evenodd" clip-rule="evenodd" d="M11.4999 41.8957H7.36495C6.93216 41.8858 6.52164 42.0812 6.25453 42.4224L1.30586 48.5248V52.4735H2.58691C2.90346 50.6141 4.51594 49.2542 6.40287 49.2542C8.2898 49.2542 9.90228 50.6141 10.2213 52.4735H11.5023L11.4999 41.8957ZM34.1559 16.811V16.8085C34.2672 16.9519 34.3142 17.1374 34.2845 17.3154L33.5055 21.9886L36.812 19.7954C37.0247 19.6545 37.2968 19.6496 37.5144 19.7831C40.3733 21.3285 43.8134 21.3631 46.7047 19.8746C49.5957 18.3885 51.5668 15.5697 51.9699 12.3433C52.3755 9.11894 51.1612 5.90196 48.7277 3.746C46.2941 1.59003 42.953 0.776389 39.7995 1.56516C36.6438 2.35639 34.0842 4.65345 32.9562 7.70218C31.8282 10.7509 32.2786 14.1606 34.1581 16.8141L34.1559 16.811ZM37.2102 21.0911L32.9861 23.8925C32.771 24.0409 32.4865 24.0483 32.264 23.9074C32.0439 23.7664 31.9276 23.5068 31.9722 23.2496L32.954 17.3623C30.9161 14.3482 30.4834 10.5279 31.7892 7.13323C33.0975 3.73832 35.9811 1.19648 39.5125 0.323527C43.0466 -0.546834 46.7807 0.363089 49.5189 2.76155C52.2541 5.15754 53.6465 8.74279 53.2459 12.3577C52.8452 15.9751 50.7011 19.1648 47.5058 20.9056C44.3105 22.6463 40.465 22.7156 37.2102 21.0911ZM44.5556 6.55952H45.5696L45.5671 6.55705C46.2225 6.55952 46.7517 7.08866 46.7542 7.74144V14.541C46.7517 15.1963 46.22 15.7254 45.5671 15.7279H38.7662C38.1133 15.7254 37.584 15.1963 37.5791 14.541V7.74144C37.584 7.0887 38.1133 6.55952 38.7662 6.55705H39.7802V10.397C39.7802 10.7555 40.072 11.0473 40.433 11.0473H43.9004C44.2614 11.0473 44.5532 10.7555 44.5532 10.397V6.55705L44.5556 6.55952ZM41.0883 6.55952H43.2498V9.74675L41.0858 9.74428V6.55705L41.0883 6.55952ZM38.766 5.25152H45.5669C46.9395 5.25399 48.0549 6.36665 48.0573 7.74144V14.541C48.0549 15.9158 46.9395 17.0285 45.5669 17.0309H38.766C37.3934 17.026 36.2805 15.9133 36.2781 14.541V7.74144C36.2805 6.36665 37.3934 5.25398 38.7685 5.25152H38.766ZM20.821 14.6818L20.1929 14.8499L19.8565 13.5914L21.4393 13.1685L21.7756 14.4271L20.821 14.6793L20.821 14.6818ZM18.4543 15.3148L17.8261 15.4829L17.4897 14.2243L19.0725 13.8015L19.4089 15.0601L18.4543 15.3123L18.4543 15.3148ZM16.0875 15.9478L15.4593 16.1159L15.123 14.8573L16.7058 14.4345L17.0421 15.6931L16.0875 15.9453L16.0875 15.9478ZM13.7207 16.5808L13.0925 16.7489L12.7562 15.4903L14.339 15.0675L14.6753 16.3261L13.7207 16.5783L13.7207 16.5808ZM11.3539 17.2137L10.7258 17.3819L10.3894 16.1233L11.9722 15.7005L12.3086 16.9591L11.354 17.2113L11.3539 17.2137ZM18.2365 11.7023L15.8277 7.42222L14.4551 7.75603L15.6966 12.3872L18.2365 11.7073L18.2365 11.7023ZM15.4048 13.809L9.4743 15.3988H9.47677C9.2072 15.4705 8.92032 15.3618 8.76698 15.1318L5.74982 11.2646L3.98647 11.7369L5.10183 15.8958L5.86106 18.7319V18.7344C6.02923 19.3649 6.43729 19.904 6.9987 20.2353L7.03085 20.2526C7.60708 20.5864 8.28967 20.6779 8.93019 20.5073L24.4738 16.3434C25.0772 16.1827 25.5916 15.792 25.9106 15.2579C25.9156 15.248 25.9205 15.2357 25.9279 15.2258H25.9255C26.5833 14.0933 26.2074 12.6419 25.0821 11.9743L25.05 11.957C24.501 11.638 23.8456 11.5515 23.2323 11.7147L19.394 12.7433L19.3742 12.7532L15.4049 13.8164L15.4048 13.809ZM14.4378 12.7185L9.55097 14.029L6.5338 10.1618H6.53627C6.38047 9.93185 6.09606 9.82305 5.82649 9.89476L3.01705 10.6514C2.85135 10.6959 2.70791 10.8047 2.62135 10.953C2.53479 11.1039 2.51253 11.2819 2.55705 11.4476L3.84056 16.2345L4.59979 19.0706C4.857 20.0325 5.48267 20.8559 6.33839 21.3603C6.35075 21.3677 6.36312 21.3751 6.37548 21.3825C7.24848 21.8919 8.28964 22.0279 9.26653 21.7683L16.3568 19.8693L17.7714 25.1434L17.7764 25.1582H17.7739C17.8233 25.3239 17.9346 25.4648 18.0855 25.5464C18.2388 25.6305 18.4169 25.6503 18.5826 25.6008L21.0507 24.8764C21.3302 24.7923 21.5231 24.5351 21.5181 24.2434L21.4514 18.5044L24.8098 17.6044C25.7398 17.3547 26.5361 16.7488 27.0257 15.918C27.0332 15.9057 27.0406 15.8933 27.048 15.8809C28.0694 14.1304 27.4833 11.8827 25.7373 10.8541L25.7002 10.8319V10.8294C24.8519 10.3374 23.8404 10.2038 22.8932 10.456L19.5372 11.3561L16.7253 6.35648L16.7277 6.35401C16.5769 6.08697 16.2603 5.96087 15.9685 6.05236L13.5078 6.64826C13.3396 6.68782 13.1937 6.79414 13.1047 6.9425C13.0156 7.08838 12.9884 7.26641 13.028 7.43208L13.033 7.44691L14.4476 12.721L14.4378 12.7185ZM17.6108 19.5257L20.1507 18.8457L20.2076 23.7588L18.8499 24.1569L17.6084 19.5257L17.6108 19.5257ZM36.2877 43.666L36.2901 43.6685C36.6661 43.5102 37.0692 43.4212 37.4772 43.4088C38.0312 43.4435 38.5728 43.5869 39.0699 43.8317C39.4161 44.0023 39.7871 44.1086 40.1704 44.1481C40.5513 44.1086 40.9247 44.0023 41.2685 43.8317C41.7656 43.5869 42.3097 43.4435 42.8636 43.4088C43.4176 43.4435 43.9592 43.5869 44.4563 43.8317C44.8001 44.0023 45.1735 44.1086 45.5544 44.1481C45.9377 44.1086 46.3111 44.0023 46.6549 43.8317C47.6442 43.2704 48.8535 43.2704 49.8428 43.8317C50.1865 44.0023 50.56 44.1086 50.9408 44.1481C51.3242 44.1086 51.6976 44.0023 52.0414 43.8317C53.0282 43.2704 54.24 43.2704 55.2292 43.8317C55.573 44.0023 55.944 44.1086 56.3273 44.1481C56.5029 44.1432 56.676 44.21 56.8022 44.3311C56.9283 44.4548 57 44.6229 57 44.8009C57 44.9765 56.9283 45.1471 56.8022 45.2682C56.676 45.3919 56.5029 45.4586 56.3273 45.4537C55.7733 45.4191 55.2317 45.2757 54.7347 45.0309C54.3884 44.8627 54.0175 44.7539 53.6341 44.7144C53.2533 44.7539 52.8798 44.8603 52.536 45.0309C51.5468 45.5922 50.3374 45.5922 49.3482 45.0309C49.0044 44.8627 48.631 44.7539 48.2501 44.7144C47.8668 44.7539 47.4934 44.8627 47.1496 45.0309C46.65 45.2757 46.1084 45.4191 45.5544 45.4537C45.0029 45.4191 44.4588 45.2757 43.9618 45.0309C43.618 44.8627 43.2446 44.7539 42.8637 44.7144C42.4804 44.7539 42.1069 44.8627 41.7632 45.0309C41.2661 45.2757 40.7245 45.4191 40.1705 45.4537C39.6165 45.4215 39.0749 45.2781 38.5754 45.0358C38.2316 44.8652 37.8582 44.7564 37.4773 44.7193C37.094 44.7564 36.7205 44.8652 36.3768 45.0358L36.2902 45.0704V51.0492C36.2877 52.3523 35.3653 53.4748 34.0842 53.7295C33.8591 55.1686 32.8427 56.3579 31.4578 56.808C30.0728 57.2604 28.5519 56.8945 27.5206 55.8659C27.3549 55.6977 27.2015 55.5172 27.068 55.3219C26.1752 56.62 24.585 57.2481 23.0442 56.9093C21.506 56.5706 20.3263 55.3318 20.0592 53.779H10.2213C9.90224 55.6384 8.28977 56.9983 6.40284 56.9983C4.51591 56.9983 2.90343 55.6384 2.58687 53.779H0.652899C0.47978 53.779 0.314081 53.7122 0.190428 53.5886C0.0692435 53.4674 0 53.2993 0 53.1262V48.2972C0 48.1464 0.0519351 48.003 0.145914 47.8867L5.24299 41.6014C5.75492 40.9535 6.53644 40.5802 7.36246 40.5876H11.4975V39.0916C11.5024 37.2025 13.0333 35.6695 14.9252 35.667H23.8679C23.7616 35.3283 23.6701 34.9821 23.5984 34.6335C23.4623 33.9757 23.3931 33.3056 23.3931 32.6331C23.3931 32.46 23.4623 32.2943 23.5835 32.1732C23.7072 32.0496 23.8729 31.9803 24.046 31.9803H30.6418V29.797C30.6442 29.4385 30.9361 29.1468 31.2946 29.1468H31.9129V27.134C31.9129 26.7755 32.2047 26.4838 32.5633 26.4838H39.2756C39.4487 26.4838 39.6144 26.553 39.7356 26.6742C39.8592 26.7953 39.9285 26.961 39.9285 27.1341V29.1468H40.5468H40.5443C40.9053 29.1468 41.1971 29.4385 41.1971 29.7995V31.9828H44.7782V29.3H44.7806C44.7806 28.939 45.0725 28.6473 45.4335 28.6473H46.4969L46.4945 25.8829C46.4945 25.5244 46.7863 25.2326 47.1473 25.2302H50.5751C50.9361 25.2326 51.2279 25.5244 51.2279 25.8829V28.6448H52.2914C52.65 28.6448 52.9418 28.9366 52.9418 29.2976V31.9804H55.3332C55.5064 31.9804 55.6721 32.0496 55.7957 32.1732C55.9169 32.2944 55.9861 32.46 55.9861 32.6331C55.9763 34.5865 55.4099 36.4978 54.3539 38.1421C53.4661 39.5317 52.3285 40.7458 51.0004 41.7199C51.3614 41.6705 51.7151 41.5642 52.044 41.4034C53.0332 40.8446 54.2451 40.8446 55.2318 41.4034C55.5781 41.5741 55.949 41.6828 56.3324 41.7199C56.691 41.7199 56.9853 42.0142 56.9853 42.3727C56.9853 42.7337 56.691 43.0254 56.3324 43.0254C55.7784 42.9933 55.2368 42.8499 54.7373 42.6051C54.3935 42.4345 54.0201 42.3281 53.6392 42.2886C53.2559 42.3281 52.8849 42.4345 52.5387 42.6051C51.5519 43.1664 50.34 43.1664 49.3508 42.6051L49.284 42.5779H49.2865C49.2543 42.568 49.2247 42.5556 49.195 42.5408C48.9007 42.3998 48.5792 42.3133 48.2527 42.2886C47.8694 42.3257 47.4984 42.4345 47.1522 42.6051C46.6551 42.8499 46.1135 42.9933 45.5595 43.0254C45.0056 42.9933 44.4639 42.8499 43.9669 42.6051C43.6206 42.4345 43.2497 42.3257 42.8663 42.2886C42.4855 42.3257 42.112 42.4345 41.7682 42.6051C41.2687 42.8499 40.7271 42.9933 40.1731 43.0254C39.6191 42.9933 39.0775 42.8499 38.5805 42.6051C38.2367 42.4345 37.8633 42.3257 37.4799 42.2886C37.0991 42.3257 36.7256 42.4345 36.3818 42.6051L36.2953 42.6422V43.6683L36.2877 43.666ZM36.2877 41.2379H36.2901C36.6661 41.0797 37.0692 40.9931 37.4772 40.9808C38.0312 41.0154 38.5728 41.1563 39.0699 41.4011C39.4161 41.5717 39.7871 41.6805 40.1704 41.7176C40.5513 41.6805 40.9247 41.5717 41.2685 41.4011C41.7656 41.1588 42.3072 41.0154 42.8612 40.9832C43.4151 41.0178 43.9568 41.1588 44.4563 41.4036C44.8001 41.5742 45.171 41.683 45.5544 41.7201C45.9377 41.683 46.3087 41.5742 46.6549 41.4036C47.152 41.1588 47.6936 41.0178 48.2476 40.9832C48.6482 40.9956 49.0439 41.0797 49.4124 41.233C50.9531 40.2687 52.2639 38.9779 53.2506 37.4548C54.0519 36.2011 54.5341 34.7695 54.6529 33.286H24.7186C24.7458 33.6519 24.7953 34.0154 24.8695 34.3739C24.961 34.8141 25.0846 35.2468 25.2404 35.6671H32.865C34.7545 35.6696 36.2878 37.2027 36.2903 39.0917V41.2429L36.2877 41.2379ZM49.9243 26.5355H47.7999V28.6446H49.9243V26.5355ZM50.7132 29.9501C50.6662 29.96 50.6217 29.965 50.5747 29.965H49.5138V31.9826H51.6382V29.9501L50.7132 29.9501ZM48.2105 29.965H47.147C47.1 29.965 47.0555 29.96 47.0085 29.9501H46.0836V31.9826H48.208V29.9649L48.2105 29.965ZM38.6201 29.1465V27.7866H33.2163V29.1465H38.6201ZM39.8912 31.9826V30.4496L31.9476 30.452V31.9851L39.8912 31.9826ZM6.39831 50.5621C7.6225 50.5621 8.67606 51.4275 8.91595 52.6292C9.15337 53.8284 8.51036 55.0301 7.38014 55.4999C6.24744 55.9673 4.94411 55.5716 4.26402 54.5529C3.58393 53.5367 3.71747 52.1792 4.58305 51.3138C5.06531 50.8316 5.71822 50.5621 6.39831 50.5621ZM26.406 53.554C26.3738 53.2696 26.3738 52.9853 26.406 52.7034C26.1834 51.388 24.9913 50.4607 23.6609 50.5695C22.3303 50.6808 21.3064 51.7935 21.3064 53.1287C21.3064 54.4639 22.3303 55.5766 23.6609 55.6854C24.9914 55.7967 26.1834 54.8694 26.406 53.554ZM27.0663 50.9355H27.0638C27.1974 50.7402 27.3507 50.5597 27.5164 50.3915C28.5279 49.3753 30.0167 49.0019 31.3893 49.4198C32.7594 49.8352 33.7882 50.9775 34.0627 52.3844C34.2532 52.3103 34.4238 52.199 34.5697 52.0556C34.8368 51.7885 34.9877 51.4251 34.9877 51.0467V39.0915C34.9852 37.9219 34.038 36.9749 32.8682 36.9724H14.9283C13.7585 36.9749 12.8088 37.9219 12.8064 39.0915V52.4735H20.0599C20.327 50.9207 21.5067 49.6844 23.0449 49.3456C24.5857 49.0069 26.1759 49.6349 27.0687 50.933L27.0663 50.9355ZM27.7217 52.7035C27.7539 52.9853 27.7539 53.2722 27.7217 53.5541C27.9418 54.8695 29.1363 55.7967 30.4668 55.6855C31.7949 55.5742 32.8187 54.464 32.8187 53.1288C32.8187 51.7935 31.7948 50.6833 30.4668 50.572C29.1363 50.4608 27.9418 51.388 27.7217 52.7035Z" fill="black"/>
</svg>
